<?xml version="1.0" encoding="utf-8"?>
<!-- Generator: Adobe Illustrator 27.5.0, SVG Export Plug-In . SVG Version: 6.00 Build 0)  -->
<svg version="1.1" id="Layer_1" xmlns="http://www.w3.org/2000/svg" xmlns:xlink="http://www.w3.org/1999/xlink" x="0px" y="0px"
	 viewBox="0 0 4000 4000" style="enable-background:new 0 0 4000 4000;" xml:space="preserve">
<g>
	<rect style="fill-rule:evenodd;clip-rule:evenodd;fill:#FFFFFF;" width="4000" height="4000"/>
	<g>
		<path style="fill-rule:evenodd;clip-rule:evenodd;" d="M1052.433,2675.143c-17.732,17.732-44.34,27.373-67.857,27.373
			c-66.703,0-92.532-46.654-92.919-91.377c-0.387-45.109,27.76-93.689,92.919-93.689c23.516,0,47.423,8.096,65.161,25.447
			l33.926-32.773c-27.76-27.373-62.46-41.253-99.086-41.253c-97.546,0-143.425,71.712-143.042,142.268
			c0.387,70.169,42.796,139.187,143.042,139.187c38.94,0,74.796-12.723,102.556-40.101L1052.433,2675.143L1052.433,2675.143z
			 M1308.441,2468.871c-93.302,0-138.798,71.325-138.798,142.268c0,70.943,43.952,139.187,138.798,139.187
			s137.643-69.787,138.416-139.573C1447.626,2540.197,1401.36,2468.871,1308.441,2468.871L1308.441,2468.871z M1308.441,2515.137
			c63.617,0,89.063,50.893,88.294,96.389c-0.77,44.335-24.677,92.145-88.294,92.145c-63.616,0-87.518-47.422-88.675-91.762
			C1218.609,2566.417,1244.825,2515.137,1308.441,2515.137L1308.441,2515.137z M1797.328,2744.156h50.893v-269.502h-58.22
			l-84.436,115.857l-84.436-115.857h-58.607v269.502h50.893V2548.23l85.98,117.401h10.022l87.91-117.014V2744.156L1797.328,2744.156
			z M2024.808,2522.46h76.34c64.772,0,65.159,95.619,0,95.619h-76.34V2522.46L2024.808,2522.46z M2101.148,2473.88
			c-42.415-0.382-84.824,0-127.233,0v270.276h50.893v-79.422h76.34C2233.394,2664.733,2233.007,2473.88,2101.148,2473.88
			L2101.148,2473.88z M2526.802,2744.156h55.519l-121.066-270.276h-55.52l-121.061,270.276h55.132l23.133-50.893h141.113
			L2526.802,2744.156L2526.802,2744.156z M2483.619,2645.839h-100.247l50.123-115.15L2483.619,2645.839L2483.619,2645.839z
			 M2856.453,2641.468l-132.246-167.588h-41.258v270.276h50.893v-182.237l141.886,182.237l0,0h31.617V2473.88h-50.893V2641.468
			L2856.453,2641.468z M3076.992,2473.88h-60.533v2.313l103.713,156.345v111.617h50.893v-111.617l107.573-156.345v-2.313h-61.302
			l-71.717,111.622L3076.992,2473.88z"/>
		<path style="fill-rule:evenodd;clip-rule:evenodd;" d="M1529.545,2916.137h18.11l-39.486-88.148h-18.105l-39.486,88.148h17.983
			l7.545-16.598h46.021L1529.545,2916.137L1529.545,2916.137z M1515.464,2884.07h-32.695l16.348-37.555L1515.464,2884.07
			L1515.464,2884.07z M1668.876,2827.99l-31.689,88.148h-14.081l-10.942-27.706l-9.303-27.832l-9.18,28.084l-10.689,27.454h-14.085
			l-32.317-88.148h18.61l20.748,63.585l21.38-63.585h10.81l22.008,63.585l20.119-63.585H1668.876L1668.876,2827.99z
			 M1744.705,2899.789h-49.421v-19.867h47.659v-15.466h-47.659v-20.373h49.421v-16.094h-65.893c0,29.382,0,58.849,0,88.148h65.893
			V2899.789L1744.705,2899.789z M1827.698,2842.575c-6.667-13.583-20.875-17.481-34.582-17.481
			c-16.22,0.127-34.075,7.545-34.075,25.656c0,19.74,16.598,24.517,34.576,26.657c11.698,1.257,20.374,4.655,20.374,12.952
			c0,9.558-9.81,13.206-20.247,13.206c-10.687,0-20.874-4.277-24.772-13.962l-13.83,7.167c6.535,16.098,20.37,21.631,38.352,21.631
			c19.617,0,36.968-8.424,36.968-28.042c0-20.998-17.1-25.78-35.461-28.043c-10.561-1.257-19.618-3.393-19.618-11.066
			c0-6.538,5.911-11.694,18.233-11.694c9.558,0,17.859,4.778,20.875,9.809L1827.698,2842.575L1827.698,2842.575z M1884.661,2826.355
			c-30.428,0-45.269,23.26-45.269,46.398s14.336,45.397,45.269,45.397c30.934,0,44.892-22.76,45.147-45.52
			C1930.058,2849.616,1914.967,2826.355,1884.661,2826.355L1884.661,2826.355z M1884.661,2841.441
			c20.748,0,29.049,16.599,28.799,31.44c-0.255,14.458-8.051,30.054-28.799,30.054c-20.747,0-28.543-15.469-28.921-29.932
			C1855.362,2858.168,1863.914,2841.441,1884.661,2841.441L1884.661,2841.441z M2018.71,2916.137h16.598v-87.897h-18.988
			l-27.542,37.786l-27.537-37.786h-19.113v87.897h16.599v-63.903l28.042,38.292h3.269l28.671-38.164V2916.137L2018.71,2916.137z
			 M2116.543,2899.789h-49.421v-19.867h47.659v-15.466h-47.659v-20.373h49.421v-16.094h-65.892c0,29.382,0,58.849,0,88.148h65.892
			V2899.789L2116.543,2899.789z M2222.295,2842.575c-6.666-13.583-20.873-17.481-34.58-17.481
			c-16.221,0.127-34.076,7.545-34.076,25.656c0,19.74,16.599,24.517,34.576,26.657c11.7,1.257,20.374,4.655,20.374,12.952
			c0,9.558-9.808,13.206-20.246,13.206c-10.687,0-20.875-4.277-24.772-13.962l-13.83,7.167
			c6.535,16.098,20.369,21.631,38.352,21.631c19.618,0,36.967-8.424,36.967-28.042c0-20.998-17.099-25.78-35.46-28.043
			c-10.56-1.257-19.618-3.393-19.618-11.066c0-6.538,5.911-11.694,18.232-11.694c9.559,0,17.86,4.778,20.875,9.809
			L2222.295,2842.575L2222.295,2842.575z M2237.887,2827.99v88.148h61.868v-15.342h-45.269v-72.806H2237.887L2237.887,2827.99z
			 M2350.179,2826.355c-30.428,0-45.269,23.26-45.269,46.398s14.335,45.397,45.269,45.397s44.891-22.76,45.146-45.52
			C2395.575,2849.616,2380.484,2826.355,2350.179,2826.355L2350.179,2826.355z M2350.179,2841.441
			c20.747,0,29.049,16.599,28.798,31.44c-0.255,14.458-8.051,30.054-28.798,30.054c-20.747,0-28.543-15.469-28.92-29.932
			C2320.881,2858.168,2329.433,2841.441,2350.179,2841.441L2350.179,2841.441z M2483.222,2839.056
			c-9.052-8.93-20.874-13.457-32.695-13.457c-31.062,0-46.526,22.887-46.526,47.659c0,23.138,13.456,44.892,46.526,44.892
			c15.469,0,26.406-5.911,35.082-15.848v-37.095h-37.723v14.841h22.509v15.592c-6.917,5.533-12.951,7.04-19.868,7.04
			c-21.881,0-30.306-14.963-30.306-29.422c0-18.111,11.444-32.445,30.306-32.445c7.673,0,16.475,3.146,22.381,8.802
			L2483.222,2839.056L2483.222,2839.056z M2569.106,2916.137h18.111l-39.487-88.148h-18.105l-39.485,88.148h17.982l7.546-16.598
			h46.02L2569.106,2916.137L2569.106,2916.137z M2555.026,2884.07h-32.696l16.348-37.555L2555.026,2884.07L2555.026,2884.07z
			 M2652.608,2882.644l-43.132-54.655h-13.457v88.148h16.599v-59.436l46.275,59.436l0,0h10.314v-88.148h-16.599V2882.644z"/>
		<g>
			<linearGradient id="SVGID_1_" gradientUnits="userSpaceOnUse" x1="3180.5" y1="1992.3883" x2="309.9159" y2="1871.3221">
				<stop  offset="0" style="stop-color:#191638"/>
				<stop  offset="1" style="stop-color:#20C4F4"/>
			</linearGradient>
			<path style="fill-rule:evenodd;clip-rule:evenodd;fill:url(#SVGID_1_);" d="M1158.247,1875.861
				C1218.149,1949.588,1158.247,1875.861,1158.247,1875.861L1158.247,1875.861z M3136.493,1979.852
				c-303.612-184.742-1042.646-571.652-1927.184-586.366c-162.464-2.702-329.835,7.151-500.319,33.119
				c0,0,223.48,126.712,398.573,380.14c0,0,882.382-96.761,1612.714,129.019c0,0-684.253-179.706-1562.031-59.903
				c59.902,73.727-375.531,532.196-375.531,532.196s608.224-557.54,2502.015-331.758
				C3284.731,2076.299,3232.283,2038.136,3136.493,1979.852z"/>
			
				<linearGradient id="SVGID_00000010299887685560540690000000856848044410510766_" gradientUnits="userSpaceOnUse" x1="3070.3726" y1="1620.2736" x2="918.5878" y2="1532.5811">
				<stop  offset="0" style="stop-color:#191638"/>
				<stop  offset="1" style="stop-color:#20C4F4"/>
			</linearGradient>
			<path style="fill-rule:evenodd;clip-rule:evenodd;fill:url(#SVGID_00000010299887685560540690000000856848044410510766_);" d="
				M1209.309,1393.486c884.538,14.714,1623.572,401.624,1927.184,586.366l-45.288-106.292
				c-17.958-14.423-36.065-28.547-54.303-42.376c-605.256-458.96-1354.883-594.86-1594.14-627.969
				c-49.51-6.851-77.166-9.301-77.166-9.301L1209.309,1393.486z"/>
			
				<linearGradient id="SVGID_00000083080045407966384430000000695392863596475318_" gradientUnits="userSpaceOnUse" x1="2999.9858" y1="1501.5615" x2="1195.0243" y2="1433.4679">
				<stop  offset="0" style="stop-color:#191638"/>
				<stop  offset="1" style="stop-color:#20C4F4"/>
			</linearGradient>
			<path style="fill-rule:evenodd;clip-rule:evenodd;fill:url(#SVGID_00000083080045407966384430000000695392863596475318_);" d="
				M1442.762,1203.215c239.257,33.109,988.884,169.008,1594.14,627.969l19.744-35.957
				c-91.308-68.557-183.973-130.764-276.057-187.104c-162.949-99.695-324.073-181.02-472.62-246.655
				c-83.165-36.745-162.386-68.573-235.78-95.953c-91.466-34.124-173.879-61.338-243.586-82.555
				c-146.782-44.681-237.224-62.768-237.224-62.768L1442.762,1203.215z"/>
			
				<linearGradient id="SVGID_00000003069225384697614420000000533400425097728899_" gradientUnits="userSpaceOnUse" x1="2781.4839" y1="1469.9929" x2="2232.7102" y2="1454.5146">
				<stop  offset="0" style="stop-color:#191638"/>
				<stop  offset="1" style="stop-color:#20C4F4"/>
			</linearGradient>
			<path style="fill-rule:evenodd;clip-rule:evenodd;fill:url(#SVGID_00000003069225384697614420000000533400425097728899_);" d="
				M2307.969,1361.467c148.547,65.635,309.671,146.96,472.62,246.655l18.022-15.638
				c-144.006-98.692-319.709-195.621-471.882-273.472L2307.969,1361.467z"/>
			
				<linearGradient id="SVGID_00000108277631007210160740000001124196105510483073_" gradientUnits="userSpaceOnUse" x1="2316.8181" y1="1296.7495" x2="2034.056" y2="1287.9073">
				<stop  offset="0" style="stop-color:#191638"/>
				<stop  offset="1" style="stop-color:#20C4F4"/>
			</linearGradient>
			<path style="fill-rule:evenodd;clip-rule:evenodd;fill:url(#SVGID_00000108277631007210160740000001124196105510483073_);" d="
				M2307.969,1361.467l18.76-42.455c-69.271-35.441-133.667-66.927-187.979-92.825l-66.561,39.328
				C2145.583,1292.894,2224.805,1324.722,2307.969,1361.467z"/>
			
				<linearGradient id="SVGID_00000063593795205901338590000010183072494987288746_" gradientUnits="userSpaceOnUse" x1="2126.4441" y1="1212.4484" x2="1782.3773" y2="1197.0765">
				<stop  offset="0" style="stop-color:#191638"/>
				<stop  offset="1" style="stop-color:#20C4F4"/>
			</linearGradient>
			<path style="fill-rule:evenodd;clip-rule:evenodd;fill:url(#SVGID_00000063593795205901338590000010183072494987288746_);" d="
				M2072.189,1265.515l66.561-39.328c-99.33-47.368-164.929-76.047-164.929-76.047l-145.218,32.82
				C1898.31,1204.176,1980.723,1231.391,2072.189,1265.515z"/>
			<path style="fill-rule:evenodd;clip-rule:evenodd;fill:#000066;" d="M3124.55,1951.82
				c-789.082-515.342-1886.495-595.041-1886.495-595.041l-28.745,36.707c884.538,14.714,1623.572,401.624,1927.184,586.366
				L3124.55,1951.82z"/>
			<path style="fill-rule:evenodd;clip-rule:evenodd;fill:#000066;" d="M3046.775,1813.205
				c-629.436-478.233-1562.547-633.155-1562.547-633.155l-41.466,23.165c239.257,33.109,988.884,169.008,1594.14,627.969
				L3046.775,1813.205z"/>
			<path style="fill-rule:evenodd;clip-rule:evenodd;fill:#000066;" d="M2089.441,1255.322
				c-133.372-52.82-221.096-81.345-221.096-81.345l-39.742,8.982c69.708,21.217,152.12,48.432,243.586,82.555L2089.441,1255.322z"/>
			<path style="fill-rule:evenodd;clip-rule:evenodd;fill:#000066;" d="M2089.441,1255.322l-17.252,10.193
				c73.394,27.379,152.616,59.208,235.78,95.953c148.547,65.635,309.671,146.96,472.62,246.655l9.01-7.819
				c-158.982-98.995-327.582-183.469-476.488-250.476C2230.909,1312.837,2154.709,1281.17,2089.441,1255.322z"/>
		</g>
		<path style="fill-rule:evenodd;clip-rule:evenodd;fill:#FFFFFF;" d="M1784.774,1231.128c10.748,0,19.517-8.767,19.517-19.516
			s-8.769-19.516-19.517-19.516s-19.517,8.766-19.517,19.516S1774.026,1231.128,1784.774,1231.128z"/>
		<path style="fill-rule:evenodd;clip-rule:evenodd;fill:#FFFFFF;" d="M1972.568,1283.901c10.749,0,19.518-8.766,19.518-19.516
			s-8.769-19.517-19.518-19.517c-10.748,0-19.517,8.768-19.517,19.517S1961.82,1283.901,1972.568,1283.901z"/>
	</g>
</g>
</svg>
